<svg width="77" height="77" viewBox="0 0 77 77" fill="none" xmlns="http://www.w3.org/2000/svg">
<path d="M76.2196 38.2199C76.2196 58.377 60.8191 74.6073 41.5032 76.178C40.459 76.4398 39.4149 76.4398 38.3708 76.4398C35.4996 76.4398 32.6283 76.178 30.018 75.6544C12.7903 71.7277 0 56.2827 0 38.2199C0 17.0157 17.2277 0 38.1098 0C59.2529 0 76.2196 17.0157 76.2196 38.2199Z" fill="#494D56"/>
<path d="M42.5475 30.1044C43.0696 29.319 44.3747 28.7955 45.9409 28.7955C47.507 28.7955 49.3342 29.0573 51.1614 29.5808L52.7276 21.4656C49.5952 20.4185 46.4629 20.1567 43.3306 20.1567C40.1983 20.1567 37.588 20.6803 35.4998 21.7274C33.4116 22.7745 32.1065 24.0834 31.3234 26.1777C30.5403 27.7484 30.0183 30.6279 30.0183 34.2929V37.4342H23.7537V46.5965H30.0183V75.3923C32.6285 75.9159 35.4998 76.1777 38.3711 76.1777C39.4152 76.1777 40.4593 76.1777 41.5034 75.9159V46.8583H49.8563V37.696H41.5034V34.8164C41.5034 32.4604 41.7645 30.8897 42.5475 30.1044Z" fill="white"/>
</svg>
