<svg width="77" height="77" viewBox="0 0 77 77" fill="none" xmlns="http://www.w3.org/2000/svg">
<path d="M76.8129 38.6545C76.8129 59.8587 59.8462 76.8744 38.7031 76.8744C17.56 76.8744 0.593262 59.8587 0.593262 38.6545C0.593262 17.4503 17.821 0.43457 38.7031 0.43457C59.8462 0.43457 76.8129 17.4503 76.8129 38.6545Z" fill="#494D56"/>
<path fill-rule="evenodd" clip-rule="evenodd" d="M53.8428 17.9736C43.6628 17.9736 33.7438 17.9736 23.5638 17.9736C19.9095 17.9736 18.0823 19.8061 18.0823 23.471C18.0823 28.4448 18.0823 33.4187 18.0823 38.6543C18.0823 43.6281 18.0823 48.8637 18.0823 53.8375C18.0823 57.2406 19.9095 59.3349 23.3028 59.3349C33.4828 59.3349 43.6628 59.3349 53.8428 59.3349C57.2362 59.3349 59.3244 57.5024 59.3244 53.8375C59.3244 43.6281 59.3244 33.6804 59.3244 23.471C59.3244 19.8061 57.4972 17.9736 53.8428 17.9736ZM50.4495 22.6857C54.6259 22.6857 54.6259 22.6857 54.6259 26.8742C54.6259 30.8009 54.6259 30.8009 50.7105 30.8009C46.5341 30.8009 46.5341 30.8009 46.5341 26.6124C46.5341 22.6857 46.5341 22.6857 50.4495 22.6857ZM38.7033 30.5391C42.8797 30.5391 46.7951 34.204 46.5341 38.6543C46.5341 43.1045 42.8798 46.7694 38.4423 46.7694C34.0049 46.7694 30.3505 43.1045 30.6115 38.6543C30.8726 34.204 34.5269 30.5391 38.7033 30.5391ZM54.6259 52.005C54.6259 53.8375 54.1039 54.3611 52.2767 54.3611C47.8392 54.3611 43.4018 54.3611 38.7033 54.3611C34.2659 54.3611 29.8285 54.3611 25.13 54.3611C23.3028 54.3611 22.7808 53.8375 22.7808 52.005C22.7808 47.0312 22.7808 42.0574 22.7808 37.0836C22.7808 35.7747 23.0418 35.2511 24.6079 35.5129C26.4351 35.5129 26.4351 35.5129 26.4351 37.3454C25.652 43.6281 30.0895 49.9108 36.3541 51.2197C42.8797 52.5286 49.4054 48.6019 50.9715 42.3192C51.4936 40.4867 51.7546 38.3925 51.2326 36.2982C50.9716 35.5129 51.2326 35.5129 52.0157 35.5129C54.8869 35.2511 54.8869 35.2511 54.8869 38.1307C54.6259 42.581 54.6259 47.293 54.6259 52.005Z" fill="white"/>
</svg>
