<svg width="77" height="77" viewBox="0 0 77 77" fill="none" xmlns="http://www.w3.org/2000/svg">
<path d="M76.3656 38.3927C76.3656 59.5969 59.3989 76.6126 38.2558 76.6126C17.1127 76.6126 0.145996 59.5969 0.145996 38.3927C0.145996 17.1886 17.1127 0.172852 38.2558 0.172852C59.1379 0.172852 76.3656 17.1886 76.3656 38.3927Z" fill="#494D56"/>
<path fill-rule="evenodd" clip-rule="evenodd" d="M60.7036 32.8954C58.0934 22.4241 48.9575 15.0943 37.9944 14.8325C36.4282 14.8325 34.8621 15.0943 33.5569 15.3561C18.1564 18.4974 10.3256 35.5132 17.6343 49.1257C17.8954 49.3875 17.8954 49.9111 17.8954 50.1728C16.8513 53.8378 15.8072 57.5027 14.763 60.9058C14.502 61.4294 14.502 61.4294 15.2851 61.4294C18.9395 60.3823 22.8549 59.3351 26.5092 58.5498C26.7702 58.5498 27.0313 58.5498 27.2923 58.5498C31.9908 60.9058 37.2113 61.6912 42.4318 60.644C55.4831 58.5498 63.8359 45.4608 60.7036 32.8954ZM41.3877 57.2409C40.3436 57.5027 39.2995 57.5027 38.7774 57.5027C34.601 57.5027 31.4687 56.7173 28.3364 54.8849C27.8144 54.6231 27.5533 54.6231 27.0313 54.6231C24.9431 55.1467 22.8549 55.6702 20.7666 56.1938C20.2446 56.1938 20.2446 56.1938 20.5056 55.932C21.0277 54.0995 21.5497 52.0053 22.0718 50.1728C22.3328 49.6493 22.0718 49.1257 21.8108 48.8639C17.6343 42.0577 17.8954 33.6807 22.5938 27.1362C27.5533 20.5917 34.34 17.9739 42.1708 19.5446C50.0016 21.1152 55.2221 26.3508 56.7882 34.2043C59.3985 44.6755 52.3508 55.4084 41.3877 57.2409Z" fill="white"/>
<path fill-rule="evenodd" clip-rule="evenodd" d="M44.2586 49.1256C43.4755 49.1256 42.6924 49.1256 41.9094 48.8638C36.6888 47.2932 32.5124 44.1518 29.3801 39.7015C28.075 38.1309 27.0309 36.2984 26.7699 34.2042C26.2478 31.8481 27.0309 29.7539 28.8581 27.9214C29.3801 27.3979 31.2073 27.1361 31.9904 27.3979C32.2514 27.6596 32.2514 27.6596 32.5124 27.9214C33.2955 29.4921 33.8176 31.0628 34.6006 32.6335C34.6006 32.8952 34.6006 33.4188 34.6006 33.6806C34.3396 34.4659 33.8176 34.9895 33.2955 35.5131C32.7735 35.7748 32.7735 36.2984 33.0345 36.822C34.8617 39.9633 37.4719 42.3193 40.8653 43.6282C41.3873 43.89 41.6484 43.6282 42.1704 43.3665C42.6925 42.5811 43.4755 41.7958 43.9976 41.2722C44.2586 40.7487 44.7807 40.7487 45.3027 41.0104C46.3468 41.534 47.652 42.0576 48.6961 42.5811C48.9571 42.8429 49.2181 42.8429 49.4791 42.8429C50.5232 43.3665 50.5232 43.6282 50.5232 44.6754C50.2622 47.0314 48.435 48.3403 46.3468 48.8638C45.3027 49.3874 44.7807 49.3874 44.2586 49.1256Z" fill="white"/>
</svg>
